<?xml version="1.0" encoding="utf-8"?>
<!-- Generator: Adobe Illustrator 26.0.2, SVG Export Plug-In . SVG Version: 6.00 Build 0)  -->
<svg version="1.1" id="Layer_1" xmlns="http://www.w3.org/2000/svg" xmlns:xlink="http://www.w3.org/1999/xlink" x="0px" y="0px"
	 viewBox="0 0 1920 1080" style="enable-background:new 0 0 1920 1080;" xml:space="preserve">
<style type="text/css">
	.st0{fill:#DDDDDD;}
	.st1{fill:#DCEBE6;}
	.st2{fill:#BBC9D4;}
	.st3{fill:#626053;}
	.st4{fill:#B0BBBD;}
	.st5{fill:#598796;}
	.st6{fill:#DED7C5;}
	.st7{fill:#575852;}
	.st8{fill:#221E1D;}
	.st9{fill:#D1B7B0;}
	.st10{fill:#71AACC;}
	.st11{fill:#DDDDDD;enable-background:new    ;}
	.st12{fill:#1A1A1A;}
	.st13{fill:#1A1A1A;enable-background:new    ;}
	.st14{fill:#E6E6E6;}
	.st15{fill:#FDB913;}
	.st16{fill:#0C0C0C;}
	.st17{fill:#8F5A57;}
</style>
<g>
	<path class="st0" d="M101.81,426.64c-0.13,6.13-0.27,12.27-0.4,18.4c6.84,0.13,13.69,0.27,20.53,0.4c0.1-6.51,0.2-13.01,0.3-19.52
		C115.43,426.17,108.62,426.4,101.81,426.64z"/>
	<path class="st0" d="M144.18,408.94c-0.13,6.13-0.27,12.27-0.4,18.4c6.84,0.13,13.69,0.27,20.53,0.4c0.1-6.51,0.2-13.01,0.3-19.52
		C157.8,408.47,150.99,408.7,144.18,408.94z"/>
	<g>
		<path class="st1" d="M165.95,419.34c0.02-0.02,0.3-0.33,0.7-0.74c0.92-0.94,1.37-1.45,1.63-1.49c1.37-0.16,2.67,2.21,3.11,2.96
			c2.5,4.26,6.45,6.8,10.1,9.42c3.34,2.39,5.46,3.1,5.39,4.64c-0.06,1.48-2.1,2.51-2.82,2.88c-3.41,1.72-7.06,0.54-8.04,0.21
			c-2.53-0.86-4.43-2.82-13.83-14.94C161.2,420.97,164.5,420.93,165.95,419.34z"/>
		<path class="st1" d="M142.17,417.14c0.04-0.23,0.37-1.9,0.92-1.93c0.25-0.01,0.39,0.31,0.86,0.91c0.55,0.7,1.03,1.13,1.78,1.8
			c1.23,1.09,1.37,0.79,1.92,1.47c0.65,0.8,0.36,1.11,1.11,2.4c0.28,0.48,0.71,1.22,1.53,1.88c0.11,0.09,0.88,0.7,1.93,1.02
			c0.48,0.15,2.04,0.56,4.95-0.51c2.81-1.03,2.66-1.89,5.68-2.98c0,0,2.39-0.86,4.36-0.18c0.39,0.13,0.7,0.54,0.7,0.54
			c0.52,0.46,0.86,0.93,1.07,1.25c0.22,0.31,0.58,0.8,1.04,1.38c1.22,1.56,1.73,2.02,1.6,2.28c-0.23,0.46-2.21-0.13-2.71-0.27
			c-3.94-1.11-6.25,0.26-11.31,0.64c-4.16,0.31-11.02,0.8-13.98-3.06C142.2,421.9,141.79,419.11,142.17,417.14z"/>
		<path class="st2" d="M140.11,421.21c0.83-1.8,1.66-3.59,2.49-5.39c0.1,0.19,0.24,0.47,0.44,0.78c0.45,0.73,0.67,1.09,0.97,1.33
			c0.65,0.5,1.06,0.18,1.65,0.72c0.17,0.16,0.31,0.41,0.59,0.92c0.33,0.59,0.55,1.08,0.74,1.5c0.68,1.52,0.6,1.55,0.91,2.04
			c0.38,0.62,0.79,1.05,1.02,1.27c0.16,0.15,0.79,0.75,1.78,1.22c0.34,0.16,1.81,0.83,3.79,0.68c1.52-0.12,2.59-0.66,3.65-1.21
			c2.86-1.49,2.9-2.65,4.01-2.7c2.37-0.1,2.43,5.16,6.56,7.69c3.2,1.97,7.74,1.6,10.2,1.4c1.72-0.14,4.5-0.57,6.85,0.69
			c0.31,0.16,0.8,0.46,1.77,0.97c1.46,0.77,2.3,1.12,3.52,1.7c2.73,1.29,4.11,1.94,4.47,2.55c0.89,1.49,0.62,3.89-0.58,4.74
			c-0.93,0.65-1.78-0.06-4.46-0.23c-2.34-0.15-2.28,0.35-5.48,0.44c-1.39,0.04-3.57,0.08-6.15-0.49c-2.56-0.57-2.52-1.09-4.61-1.59
			c-3.46-0.82-4.76,0.32-8.15,0.11c-3.27-0.2-5.63-1.47-7.7-2.58c-3.65-1.97-5.08-4-8.94-7.96
			C147.4,427.7,144.29,424.66,140.11,421.21z"/>
		<path class="st3" d="M137.95,435.19c-0.08,0.16,0,0.41,0.17,0.91c0.34,1.04,0.96,1.68,1.58,2.31c1.15,1.15,2.26,1.74,2.59,1.9
			c0.63,0.32,1.17,0.5,1.87,0.73c0.25,0.08,0.79,0.26,2.08,0.59c0.99,0.25,1.86,0.47,2.9,0.66c1.15,0.21,1.87,0.27,3.2,0.41
			c4.09,0.43,3.53,0.5,6.06,0.72c1.9,0.16,2.77,0.17,4.31,0.53c0.77,0.18,1.5,0.4,2.05,0.56c1.23,0.37,1.47,0.5,3.35,1.14
			c0.52,0.17,1.44,0.47,3.3,1.07c1.42,0.46,1.76,0.56,2.28,0.7c0.7,0.18,1,0.23,2.48,0.53c2.7,0.54,2.68,0.58,3.57,0.72
			c0.66,0.1,1.72,0.27,2.98,0.32c2.2,0.08,3.86-0.25,5.67-0.61c0.91-0.18,2.34-0.5,4.05-1.08c0.69-0.23,1.86-0.53,2.97-1.34
			c0.79-0.58,1.23-1.52,1.15-1.59c-0.06-0.05-0.43,0.2-0.7,0.37c-0.07,0.05-0.11,0.07-0.19,0.13c-0.02,0.02-0.29,0.18-0.52,0.27
			c-0.33,0.13-0.38,0.04-0.67,0.14c-0.5,0.17-0.63,0.53-0.87,0.47c-0.08-0.02-0.18-0.09-0.28-0.33c-4.91,0.75-9.02-0.9-15.62-1.28
			c-2.98-0.17-8.69-0.53-15.76-2.44c-1.71-0.46-0.98-0.33-10.61-3.45C144.12,435.92,138.47,434.15,137.95,435.19z"/>
		<path class="st4" d="M184.4,431.24c0.6,0.39,1.36,0.96,1.51,1.85c0.09,0.53-0.01,1.28-0.47,1.56c-0.42,0.25-0.94,0.02-1.58-0.23
			c0,0-1.67-0.64-3.88-1.15c-0.3-0.07-1.57-0.35-3.24-0.33c-0.65,0-1.63,0.02-2.84,0.3c-0.79,0.19-1.08,0.35-2.76,1
			c-1.91,0.74-1.66,0.58-2.89,1.08c-1.94,0.78-2.29,1.07-4.16,1.81c-0.97,0.38-1.71,0.67-2.3,0.83c-3.77,1-7.67-1.79-8.07-2.08
			c-3.71-2.72-5.24-7.33-4.55-7.89c0.31-0.25,0.9,0.45,2.92,0.93c1.26,0.29,2.27,0.31,2.92,0.31c1.85,0.02,3.24-0.32,4.16-0.54
			c1.07-0.26,2.01-0.59,2.8-0.92c-1.09-0.98-2.18-1.97-3.28-2.95c1.72-0.32,2.82-0.97,3.53-1.53c0.62-0.49,1.03-0.99,1.97-1.34
			c0.41-0.16,1.39-0.52,2.25-0.1c0.25,0.12,0.5,0.42,1,1c0.74,0.87,0.91,1.21,1.43,1.81c0.49,0.57,0.98,1,1.27,1.23
			c1.18,0.94,2.22,0.98,3.7,1.43c1.87,0.56,1.56,0.88,3.69,1.67C180.63,430.15,182.09,429.76,184.4,431.24z"/>
		<path class="st5" d="M148.59,427.83c1.59,0.8,2.95,1.34,3.96,1.7c1.08,0.38,1.95,0.62,2.25,0.7c0.33,0.09,0.97,0.25,1.81,0.42
			c1.09,0.22,1.91,0.33,2.09,0.35c0.62,0.08,1.32,0.11,2.71,0.18c0.19,0.01,0.67,0.03,1.26-0.12c0.52-0.13,0.76-0.29,0.92-0.43
			c0.04-0.04,0.22-0.2,0.37-0.47c0.21-0.37,0.24-0.72,0.24-0.9c0.01-0.44-0.14-0.77-0.17-0.84c-0.09-0.19-0.2-0.33-0.28-0.42
			c0.35,0,0.93,0.06,1.58,0.35c0.71,0.32,1.12,0.75,1.22,0.84c0.31,0.33,0.97,1.03,0.95,2.05c-0.02,1.11-0.84,1.98-1.61,2.34
			c-0.48,0.23-0.92,0.25-1.18,0.26c-2.23,0.07-4.38-0.47-6.15-0.94c-1.3-0.34-2.09-0.56-2.96-0.81c-3.17-0.89-3.6-1.09-3.9-1.25
			C150.89,430.43,149.68,429.58,148.59,427.83z"/>
		<path class="st4" d="M138.24,428.06c0.08-1.14,0.2-2.67,0.82-4.6c0.5-1.56,1.14-2.75,1.4-3.22c0.16-0.29,0.31-0.53,0.42-0.7
			c0.27,0.32,0.66,0.78,1.14,1.33c1.34,1.56,2.02,2.35,2.34,2.66c0.19,0.19,1.04,0.9,2.73,2.32c0.76,0.64,1.12,0.93,1.71,1.46
			c0.65,0.57,0.72,0.66,1.56,1.42c1.28,1.16,1.35,1.17,2.11,1.88c1.02,0.95,1.53,1.44,1.8,1.95c0.22,0.41,0.16,0.45,0.69,2.16
			c0.49,1.58,0.58,1.68,0.49,1.9c-0.46,1.14-3.75,0.81-4.55,0.71c-1.84-0.22-2.74-0.66-5.02-1.46c-5.47-1.91-6.59-1.58-7.4-2.93
			C137.95,432.06,138.05,430.73,138.24,428.06z"/>
		<path class="st5" d="M137.94,430.35c-0.11-0.76-0.07-1.26,0.01-1.78c0.14-0.87,0.36-0.98,0.46-1.01c0.08-0.02,0.12,0.02,0.26,0.04
			c0.39,0.05,0.69-0.01,0.86-0.05c0.75-0.15,0.82-0.55,1.43-0.62c0.48-0.06,0.87,0.14,1.18,0.3c0.27,0.14,0.73,0.37,0.96,0.86
			c0.14,0.3,0.1,0.51,0.13,0.87c0.01,0.1,0.12,1.52,1.12,2.54c0.09,0.09,0.43,0.43,0.98,0.7c0.21,0.1,0.83,0.4,1.65,0.39
			c1.18-0.02,1.49-0.67,2.65-0.54c0.38,0.04,0.67,0.14,0.8,0.2c0.59,0.23,0.98,0.59,1.19,0.81c0.19,0.36,0.51,0.94,0.91,1.65
			c0.41,0.71,0.56,0.95,0.49,1.22c-0.16,0.66-1.48,0.86-1.77,0.9c-2.53,0.38-3.52-1.13-7.03-1.81c-2.23-0.43-2.67,0.02-3.83-0.7
			C138.36,433.07,137.98,430.61,137.94,430.35z"/>
		<path class="st5" d="M165.13,439.76c2.1-0.44,3.53-1.19,4.47-1.82c0.66-0.44,1.35-1.01,2.58-1.45c0.19-0.07,1.19-0.42,2.51-0.39
			c0.94,0.02,1.29,0.23,1.45,0.34c0.39,0.28,0.57,0.65,0.81,1.16c0.2,0.42,0.32,0.8,0.52,1.47c0.16,0.54,0.2,0.77,0.42,1.1
			c0.13,0.2,0.3,0.46,0.6,0.62c0.33,0.17,0.68,0.15,1.38-0.03c0.82-0.21,1.42-0.36,2.26-0.8c0.54-0.28,1.05-0.55,1.66-1.02
			c0.5-0.39,0.78-0.69,1.24-0.68c0.47,0,0.81,0.31,0.86,0.36c0.58,0.54,0.23,1.17,0.8,1.83c0.33,0.38,0.74,0.52,0.91,0.58
			c0.53,0.18,0.98,0.12,1.25,0.08c0.26-0.04,1.04-0.16,1.61-0.75c0.41-0.43,0.33-0.7,0.87-1.17c0.41-0.36,0.67-0.38,0.76-0.38
			c0.1,0,0.22,0.01,0.75,0.26c0.61,0.29,0.54,0.31,0.77,0.39c0.4,0.13,0.72,0.1,1.19,0.05c0.52-0.05,0.62-0.15,0.66-0.2
			c0.14-0.17,0.1-0.42,0.07-0.64c-0.01-0.1-0.05-0.31-0.26-0.72c-0.14-0.28-0.28-0.56-0.53-0.86c-0.4-0.49-0.77-0.66-0.75-0.69
			c0.04-0.06,1.37,0.31,2.41,1.47c0.27,0.3,0.85,1.02,1.12,2.12c0.22,0.93,0.11,1.67,0.05,2.09c-0.09,0.54-0.21,1.33-0.71,1.97
			c-0.69,0.9-1.8,1.13-2.38,1.24c-8.74,1.62-12.38,1.14-12.38,1.14C174.37,445.38,168.31,441.89,165.13,439.76z"/>
		<path class="st6" d="M137.87,429.28c-0.27,0.64-0.54,1.64-0.58,2.85c-0.01,0.48-0.03,1.38,0.33,2.47
			c0.42,1.27,1.12,2.07,1.49,2.49c0.62,0.7,1.2,1.09,1.98,1.62c1.3,0.88,2.39,1.34,2.64,1.44c0.4,0.16,1.01,0.39,2.77,0.79
			c1.99,0.46,3.52,0.71,3.67,0.73c3.47,0.55,6.47,0.88,7.37,0.97c3.99,0.42,4.22,0.33,5.59,0.69c1.75,0.47,1.82,0.74,4.24,1.38
			c1.08,0.29,2.13,0.51,3.81,1.07c0.74,0.25,1.16,0.41,1.56,0.55c2.47,0.89,4.74,1.26,5.95,1.45c1.58,0.25,3.55,0.56,6.18,0.44
			c3.99-0.18,6.81-1.23,7.61-1.54c1.95-0.76,3.81-1.78,3.72-2c-0.07-0.19-1.5,0.35-3.51,0.63c-1.1,0.15-2.46,0.23-5.83-0.14
			c-3.26-0.36-5.59-0.61-8.48-1.41c-0.96-0.27-1.54-0.47-9.5-3.97c-5.44-2.39-6.49-2.88-8.6-3.38c-0.34-0.08,0.05,0.02-6.18-0.98
			c-4.62-0.74-6.95-1.11-7.95-1.34c-0.55-0.12-1.15-0.27-2.06-0.38c-1.68-0.2-1.9,0.05-2.76-0.22c-1.4-0.43-2.21-1.53-2.45-1.87
			C138.2,430.7,137.95,429.76,137.87,429.28z"/>
		<path class="st5" d="M163.72,423.43c0.13-0.2,0.37-0.55,0.72-0.61c0.4-0.07,0.74,0.28,0.76,0.31c0.3,0.33,0.26,0.76,0.25,0.93
			c-0.02,0.17-0.03,0.34-0.15,0.49c-0.16,0.2-0.4,0.26-0.83,0.37c-0.39,0.09-0.46,0.05-0.63,0.16c-0.2,0.12-0.18,0.22-0.42,0.46
			c-0.19,0.19-0.43,0.44-0.78,0.49c-0.35,0.05-0.63-0.12-0.7-0.17c-0.09-0.05-0.28-0.18-0.38-0.42c-0.09-0.22-0.06-0.42-0.03-0.55
			c0.02-0.1,0.1-0.58,0.51-0.83c0.25-0.15,0.52-0.16,0.71-0.16c0.35-0.01,0.47,0.09,0.65,0
			C163.56,423.81,163.54,423.69,163.72,423.43z"/>
		<path class="st2" d="M164.67,423.98c-0.2-0.05-0.21-0.21-0.21-0.23c0-0.35,0.95-0.74,2.18-1.52c1.41-0.9,1.42-1.2,2.78-1.92
			c0.27-0.14,1.46-0.77,1.72-0.65c0.23,0.1-0.35,0.71-0.55,0.92c-0.6,0.64-1.91,1.76-4.92,3.12
			C165.29,423.93,164.9,424.03,164.67,423.98z"/>
		<path class="st2" d="M175.41,419.17c-0.71-0.92-1.6-1.38-1.72-1.44c-0.54-0.27-0.98-0.36-1.78-0.52
			c-1.16-0.24-1.73-0.35-2.15-0.18c-0.68,0.28-1.03,0.98-1.61,2.14c-0.12,0.23-0.31,0.61-0.46,1.07c-0.43,1.29-0.17,2.02,0.09,4.9
			c0.16,1.82,0.13,2.34,0.62,2.98c0.45,0.58,1.06,0.9,1.3,1.02c0.3,0.15,1.14,0.58,2.05,0.46c1.1-0.14,1.77-0.99,2.71-2.19
			c0.85-1.09,1.42-1.8,1.75-2.97C176.3,424.12,177.05,421.3,175.41,419.17z M175.38,424.9c-0.25,0.63-0.7,1.16-1.59,2.18
			c-1.11,1.27-1.67,1.91-2.31,1.99c-0.75,0.1-1.55-0.26-2.01-0.8c-0.29-0.34-0.38-0.69-0.54-1.79c-0.26-1.79-0.33-3.02-0.33-3.02
			c-0.16-2.67-0.01-3.12,0.08-3.36c0.34-0.89,0.92-1.53,1.16-1.78c0.28-0.3,0.43-0.46,0.67-0.55c0.62-0.24,1.27,0.1,2.11,0.53
			c0.61,0.31,1.04,0.63,1.37,0.89c0.56,0.42,0.83,0.63,1.06,0.93c0.54,0.7,0.59,1.47,0.65,2.25
			C175.73,422.9,175.8,423.83,175.38,424.9z"/>
		<path class="st2" d="M181.2,424.74c-0.23-0.32-0.46-0.31-1.06-0.65c-0.63-0.36-0.73-0.58-1.63-1.33c0,0-0.69-0.58-1.63-1.24
			c-1.19-0.84-2.26-1.26-4.33-2.09c-2.2-0.88-2.72-0.91-3.17-0.66c-0.46,0.26-0.84,0.83-0.73,1.26c0.11,0.41,0.62,0.45,1.44,0.89
			c0.87,0.47,0.91,0.76,2.01,1.63c0.33,0.26,0.97,0.66,2.23,1.46c0.33,0.21,1.65,1.04,3.39,1.97c0.37,0.2,0.85,0.45,1.52,0.59
			c0.7,0.15,1.5,0.32,1.94-0.15C181.58,426,181.53,425.21,181.2,424.74z M180.16,425.44c-0.07,0.21-0.26,0.45-0.51,0.49
			c-0.34,0.06-0.56-0.29-1.05-0.62c-0.43-0.29-0.67-0.31-1.34-0.55c-0.67-0.24-2.13-0.76-3.35-1.86c-0.54-0.48-0.45-0.55-0.92-0.9
			c-0.39-0.29-1.35-1-2.21-1.03c-0.09,0-0.38,0-0.65-0.18c-0.08-0.05-0.24-0.16-0.33-0.36c-0.14-0.33-0.04-0.79,0.23-0.95
			c0.17-0.11,0.37-0.06,1,0.17c1.06,0.39,1.49,0.6,1.49,0.6c0.78,0.38,1.18,0.59,1.54,0.77c1.51,0.76,1.47,0.54,2.47,1.1
			c0.46,0.26,1.35,0.76,2.02,1.42c0.19,0.19,0.33,0.35,0.62,0.56c0.44,0.31,0.68,0.31,0.86,0.61
			C180.08,424.77,180.28,425.08,180.16,425.44z"/>
		<path class="st2" d="M182.97,432.63c-0.29-0.38-0.37-0.78-0.38-0.87c-0.22-1.14-0.86-1.84-0.73-1.92
			c0.12-0.08,0.67,0.56,0.87,0.81c0.74,0.93,0.79,1.54,0.79,1.79c0,0.1-0.01,0.44-0.15,0.49
			C183.23,432.98,183.04,432.73,182.97,432.63z"/>
		<path class="st2" d="M173.34,422.55c0.31,1.27-3.92,3.61-4.31,3.15c-0.17-0.2,0.28-1.06,3.03-3.96
			C172.57,421.87,173.23,422.1,173.34,422.55z"/>
		<path class="st2" d="M175.26,424.5c0.31,1.3-3.98,3.69-4.38,3.22c-0.18-0.2,0.28-1.08,3.08-4.05
			C174.48,423.8,175.15,424.04,175.26,424.5z"/>
		<path class="st2" d="M178.18,426.72c0.26,1.1-3.29,3.14-3.63,2.75c-0.14-0.17,0.24-0.92,2.55-3.45
			C177.54,426.13,178.09,426.33,178.18,426.72z"/>
		<path class="st2" d="M180.54,428.69c0.2,0.96-2.62,2.76-2.88,2.42c-0.11-0.15,0.19-0.8,2.04-3.03
			C180.03,428.18,180.47,428.35,180.54,428.69z"/>
		<path class="st7" d="M148.37,439.78c3.5,0.44,7,0.88,10.49,1.32c0.68,0.11,1.27-0.34,1.35-0.89c0.06-0.41-0.18-0.85-0.6-1.09
			c-0.23-0.03-0.46-0.06-0.69-0.09c-3.39-0.36-6.78-0.72-10.17-1.08c-0.46-0.05-0.88,0.22-1.02,0.61
			C147.57,439.03,147.84,439.6,148.37,439.78z"/>
	</g>
	<g>
		<path class="st8" d="M96.86,449.19c-0.02,0.42-0.06,2.37,0.71,3.95c0.18,0.37,0.51,1.05,1.22,1.65c0.24,0.2,0.45,0.33,0.61,0.43
			c2.06,1.21,5.16,1.96,5.16,1.96c4.12,1,3.36,0.87,5.47,1.34c1.88,0.42,2.19,0.46,4.19,0.92c0.83,0.19,2.32,0.53,4.03,0.98
			c1.16,0.3,1.99,0.54,5.38,1.53c5.34,1.57,5.39,1.6,6.35,1.83c1.94,0.46,3.54,0.84,5.74,1.01c2.1,0.16,3.72,0.06,5.1-0.03
			c2.96-0.2,5.12-0.65,5.65-0.76c1.72-0.37,3.22-0.69,5.1-1.53c0.36-0.16,2.44-1.11,4.52-3.02c1.08-0.99,1.65-1.79,1.59-2.69
			c-0.01-0.16-0.06-0.76-0.43-0.98c-0.92-0.53-3.1,1.71-3.76,2.32c-4.92,4.6-15.47,3.42-18.79,3.06c-4.29-0.48-2.21-0.98-13.78-4.12
			c-8-2.17-12.79-2.96-20.32-6.14C99.02,450.2,97.72,449.6,96.86,449.19z"/>
		<path class="st1" d="M120.14,435.24c0.33-0.96,2.16-1.33,3.5-3c0.02-0.02,0.28-0.35,0.65-0.79c0.85-1,1.27-1.54,1.53-1.59
			c1.35-0.25,2.81,2.03,3.3,2.75c2.78,4.09,6.88,6.36,10.69,8.74c3.49,2.17,5.65,2.74,5.68,4.28c0.03,1.48-1.93,2.64-2.63,3.06
			c-3.29,1.94-7.01,1-8,0.73c-2.58-0.69-4.61-2.53-8.55-6.17C119.75,437.17,119.97,435.75,120.14,435.24z"/>
		<path class="st1" d="M98.68,433.26c0.1-0.41,0.32-1.21,1.04-1.73c0.16-0.11,0.74-0.54,1.43-0.41c0.17,0.03,0.57,0.14,1.45,1.28
			c0.35,0.46,0.72,0.95,1.14,1.79c0.73,1.46,0.47,1.7,1.08,2.69c0.62,1.01,1.37,1.58,1.65,1.77c0.12,0.08,0.92,0.64,2,0.9
			c0.49,0.12,2.07,0.42,4.91-0.84c2.74-1.21,2.53-2.06,5.48-3.34c0,0,2.33-1.01,4.34-0.47c0.4,0.11,0.73,0.49,0.73,0.49
			c0.55,0.43,0.92,0.87,1.15,1.18c0.24,0.29,0.63,0.76,1.13,1.31c1.32,1.48,1.86,1.9,1.74,2.17c-0.2,0.47-2.22,0.01-2.72-0.09
			c-4-0.85-6.22,0.67-11.24,1.37c-3.82,0.54-11.3,1.59-14.15-2.14C98.44,437.4,98.32,434.67,98.68,433.26z"/>
		<path class="st2" d="M97.84,437.68c-0.04-2.37,0.82-5.32,1.89-5.44c0.29-0.03,0.56,0.14,0.92,0.37c0.86,0.54,1.26,1.31,1.59,1.96
			c1.43,2.82,1.24,2.94,1.83,3.61c0.74,0.84,1.62,1.29,2.2,1.59c0.46,0.24,1.2,0.61,2.2,0.79c1.46,0.27,2.63-0.03,3.91-0.37
			c0.39-0.1,1.43-0.39,2.97-1.12c2.86-1.34,2.98-2.08,4.16-2.32c0.69-0.14,1.52-0.07,6.07,3.2c2.29,1.64,5.3,3.94,8.25,5.8
			c0.24,0.15,0.88,0.55,1.77,0.98c1.97,0.94,3.15,1.5,4.34,1.28c2.21-0.4,2.44-3.16,4.4-3.18c0.44,0,1.05,0.3,2.26,0.92
			c1.18,0.6,1.69,1.01,2.75,1.65c1.34,0.81,2.6,1.37,3.06,1.59c1.97,0.93,2.19,0.85,2.57,1.29c0.93,1.09,0.82,3.09,0.12,4.46
			c-1.36,2.65-5.08,3.13-7.15,3.39c-1.92,0.24-2.15-0.04-5.9-0.18c-5.97-0.22-6.89,0.46-9.72-0.18c-1.59-0.36-3.93-1.17-6.57-3.27
			c-7.12-4.15-12.73-5.45-16.62-5.84c-1.42-0.14-3.55-0.26-5.8-1.62C100.12,445.08,97.9,441.36,97.84,437.68z"/>
		<path class="st4" d="M97.23,442.61c-0.19-0.64-0.11-1.53,0.04-3.3c0.04-0.45-0.05-1.72,0.46-3.17c0.19-0.54,0.32-0.72,0.48-0.74
			c0.45-0.05,0.54,1.4,1.59,2.65c0.54,0.64,1.52,1.21,3.46,2.32c1.38,0.79,2.09,1.2,2.93,1.51c0.29,0.11,1.45,0.52,3.06,0.73
			c0.77,0.1,2.78,0.3,5.3-0.24c1.16-0.25,2.09-0.59,2.73-0.86c-0.64-0.81-1.28-1.63-1.91-2.44c1.6-1.07,3.04-1.81,4.16-2.32
			c2.1-0.97,2.61-0.9,2.85-0.86c1.44,0.29,1.31,1.68,3.58,3.1c1.18,0.73,1.77,1.1,2.65,1.26c0.76,0.14,1.65,0.12,1.96,0.69
			c0.14,0.27,0.07,0.52,0.33,0.81c0.22,0.25,0.38,0.19,0.77,0.45c0.11,0.07,0.56,0.38,0.86,0.9c0.31,0.55,0.16,0.84,0.41,0.98
			c0.32,0.18,0.61-0.28,1.34-0.24c0.17,0.01,0.68,0.03,0.94,0.37c0.14,0.19,0.09,0.31,0.29,0.77c0.16,0.37,0.24,0.55,0.37,0.57
			c0.26,0.03,0.31-0.61,0.86-0.86c0.31-0.14,0.62-0.08,1.02,0c0.41,0.08,0.66,0.13,0.77,0.33c0.14,0.25-0.08,0.43,0,0.98
			c0.03,0.22,0.06,0.46,0.24,0.61c0.29,0.25,0.76,0.11,0.86,0.08c0.51-0.15,0.51-0.43,0.53-0.24c0.02,0.19,0.39,0.16,0.65,0.45
			c0.26,0.28,0.29,0.73,0.2,1.06c-0.11,0.42-0.41,0.64-0.49,0.69c-0.26,0.19-0.53,0.22-0.73,0.24c-0.53,0.06-0.94-0.07-1.1-0.12
			c-0.67-0.21-1.36-0.34-2.04-0.53c-0.7-0.2-1.5-0.43-2.48-0.53c-0.56-0.06-1.14-0.04-2.32,0c-1.3,0.04-1.96,0.07-2.4,0.2
			c-0.85,0.26-1.68,0.77-1.96,0.94c-0.2,0.12-0.38,0.24-0.86,0.53c-0.71,0.43-0.81,0.47-1.02,0.61c-0.67,0.46-0.97,0.99-1.14,1.22
			c-0.59,0.77-2.07,1-5.46,0.57c-1.56-0.2-2.55-0.41-5.87-1.14c-4.33-0.95-4.72-1.05-5.5-1.3c-0.75-0.25-2.64-0.91-4.93-2.16
			C99.52,445.44,97.78,444.49,97.23,442.61z"/>
		<path class="st4" d="M141.35,443.22c0.27,0.31,0.68,0.87,0.94,1.67c0.17,0.53,0.53,1.61,0.04,2.2c-0.38,0.47-1.12,0.43-1.67,0.41
			c-3.51-0.15-5.29-0.21-6.52,0.2c-0.66,0.22-0.1,0.19-2.73,1.96c-2.54,1.71-3.81,2.56-4.97,2.97c-0.71,0.26-1.13,0.33-1.18,0.61
			c-0.1,0.59,1.66,0.85,4.48,2.61c0.93,0.58,2.06,1.37,3.5,1.39c0.54,0.01,0.86-0.1,1.02-0.33c0.29-0.41-0.18-0.88-0.14-1.75
			c0.03-0.62,0.29-1.04,0.79-1.83c0.29-0.45,0.7-1.11,1.47-1.71c0.84-0.66,1.66-0.89,2.57-1.14c0.63-0.18,1.4-0.39,2.44-0.45
			c0.64-0.03,1.11,0.01,1.75-0.24c0.23-0.09,0.67-0.26,1.06-0.65c0.95-0.93,0.85-2.32,0.81-2.65c-0.13-1.27-0.91-2.06-1.1-2.24
			C142.88,443.24,141.62,443.22,141.35,443.22z"/>
		<path class="st5" d="M97.38,445.87c-0.7-1.77-0.83-2.21-0.79-2.78c0.01-0.2,0.08-1.5,0.82-1.8c0.4-0.16,0.86,0.02,1.41,0.24
			c0.42,0.17,0.61,0.32,1.13,0.64c0.56,0.35,1.03,0.6,1.96,1.1c1.16,0.62,1.24,0.61,1.56,0.89c0.57,0.5,0.88,1.07,1.04,1.37
			c0.42,0.79,0.26,0.94,0.61,1.53c0.08,0.13,0.68,1.12,1.71,1.44c0.43,0.13,0.65,0.05,2.2-0.27c0.2-0.04,2.19-0.45,3.88-0.43
			c0.25,0,0.58,0.02,0.92,0.21c0.28,0.16,0.4,0.36,0.89,1.04c0.38,0.54,0.57,0.81,0.64,0.89c0.24,0.29,0.67,0.79,1.34,1.1
			c0.21,0.1,0.62,0.25,1.31,0.27c0.93,0.03,1.73-0.22,4.8-1.34c0.34-0.13,0.81-0.3,1.37-0.18c0.79,0.16,1.26,0.79,1.31,0.86
			c0.37,0.51,0.21,0.77,0.58,1.56c0.25,0.54,0.46,0.98,0.86,1.22c0.99,0.6,2.69-0.35,3.21-0.64c0.99-0.56,1.44-1.13,2.26-1.04
			c0.15,0.02,0.51,0.06,0.76,0.34c0.34,0.36,0.23,0.85,0.24,1.53c0.01,0.53,0.05,1.84,0.67,2.35c0.57,0.47,1.52,0.18,2.6-0.15
			c1.32-0.41,2.88-1.24,3.42-1.53c0.68-0.36,1.04-0.59,1.47-0.46c0.15,0.05,0.38,0.16,1.16,1.44c0.58,0.95,0.7,1.29,1.13,1.47
			c0.37,0.15,0.71,0.08,0.98,0.03c0.91-0.18,1.58-0.85,2.44-1.74c0.58-0.59,0.76-0.88,1.22-0.98c0.42-0.09,0.85,0.04,1.13,0.12
			c0.48,0.14,0.62,0.29,1.04,0.49c0.28,0.13,1.01,0.47,1.83,0.4c0.91-0.08,1.54-0.61,1.77-0.82c0.06-0.06,1.1-1.06,0.98-2.41
			c-0.09-1.05-0.83-1.7-0.7-1.8c0.12-0.1,0.8,0.48,1.34,1.1c0.71,0.81,1.06,1.59,1.19,1.89c0.29,0.67,0.62,1.46,0.58,2.47
			c-0.07,1.84-1.31,3.06-1.62,3.36c-0.27,0.27-0.88,0.81-2.35,1.41c-2.19,0.88-4.11,0.98-4.7,1.01c-5.58,0.25-8.37,0.37-12.22-0.24
			c-2.2-0.35-5-1.16-10.6-2.78c-5.4-1.56-5.94-1.9-9.1-2.63c-5.1-1.18-4.98-0.61-8.65-1.65c0,0-8.5-2.42-10.3-6.26
			C98,447.42,97.77,446.83,97.38,445.87z"/>
		<path class="st6" d="M96.95,445.58c-0.19,0.14-0.18,0.34-0.2,1.67c-0.01,0.95-0.08,1.53-0.04,2.36c0.04,0.8,0.06,1.2,0.16,1.55
			c0.2,0.71,0.68,1.27,1.47,2.08c0.61,0.62,1.63,1.48,4.11,2.48c1.18,0.48,2.23,0.77,4.26,1.33c0,0,2.75,0.75,6.62,1.6
			c3.07,0.67,2.95,0.58,4.62,0.98c2.89,0.69,3.23,0.96,6.57,1.88c3.76,1.04,6.64,1.6,7.7,1.8c2.64,0.5,3.95,0.75,5.52,0.86
			c0.93,0.06,5.03,0.26,10.1-1.28c3.05-0.92,5.57-2.21,7.56-3.47c-1.25,0.45-2.79,0.89-4.56,1.18c-1.53,0.25-2.92,0.34-4.11,0.35
			c-0.63,0.04-1.44,0.08-2.38,0.09c-0.63,0.01-1.57,0.02-2.78-0.03c-0.24-0.01-1.51-0.07-2.9-0.23c-1.57-0.19-5.19-0.62-8.89-2.24
			c-0.91-0.4-2.25-1.05-3.02-1.44c-0.99-0.48-1.66-0.83-2.32-1.19c-0.74-0.4-1.25-0.69-1.5-0.83c-0.97-0.55-3.21-1.82-5.96-2.78
			c-0.78-0.27-0.84-0.26-3.46-1.08c-0.2-0.06-0.66-0.21-1.28-0.37c-0.64-0.17-1.12-0.27-1.26-0.3c-1.17-0.26-2.79-0.71-3.88-1.02
			c-3.02-0.85-4.52-1.27-5.7-1.83C98.82,446.47,97.57,445.12,96.95,445.58z"/>
		<path class="st5" d="M106.98,442.75c0.5,0.32,1.14,0.79,1.77,1.47c0.5,0.55,0.87,1.08,1.13,1.53c0.55,0.16,1.35,0.41,2.32,0.73
			c1.63,0.55,1.75,0.67,2.9,1.04c0.24,0.08,1.38,0.36,3.65,0.93c0,0,0,0,0,0c1.03,0.32,2.17,0.4,2.54,0.44
			c0.94,0.08,2.53-0.32,3.15-1.45c0.78-1.4-0.3-3.27-1.08-4.15c-0.71-0.8-1.53-1.19-2-1.37c0.11,0.27,0.41,1.1,0.09,1.99
			c-0.06,0.18-0.2,0.54-0.54,0.86c-0.18,0.17-0.54,0.44-1.45,0.58c-0.86,0.13-1.56,0.04-2.02-0.02c-0.59-0.09-1.28-0.21-3.97-0.89
			c-0.59-0.15-1.1-0.28-1.91-0.47c-0.72-0.17-1.12-0.26-1.44-0.33C109.39,443.45,108.33,443.18,106.98,442.75z"/>
		<path class="st5" d="M120.74,437.5c0.14-0.2,0.38-0.54,0.73-0.59c0.4-0.06,0.73,0.3,0.75,0.33c0.3,0.33,0.24,0.76,0.22,0.94
			c-0.02,0.17-0.04,0.34-0.16,0.49c-0.16,0.2-0.4,0.25-0.84,0.35c-0.39,0.08-0.46,0.04-0.63,0.14c-0.2,0.12-0.19,0.21-0.43,0.45
			c-0.19,0.19-0.44,0.43-0.79,0.47c-0.35,0.04-0.63-0.14-0.69-0.18c-0.08-0.06-0.27-0.18-0.37-0.43c-0.09-0.22-0.05-0.42-0.02-0.55
			c0.02-0.1,0.12-0.58,0.53-0.81c0.25-0.15,0.53-0.14,0.71-0.14c0.35,0,0.47,0.11,0.65,0.02
			C120.57,437.88,120.55,437.76,120.74,437.5z"/>
		<path class="st1" d="M123.9,432.18c0.11,0.18,0.24,0.36,0.4,0.55c0.51,0.62,1.07,1.04,1.53,1.31"/>
		<path class="st2" d="M141.1,441.41c0.11,0.07,0.26,0.2,0.37,0.4c0.15,0.3,0.11,0.6-0.12,1.42c-0.19,0.67-0.31,1.06-0.58,1.73
			c-0.35,0.85-0.37,0.97-0.49,1.1c-0.45,0.51-1.26,0.8-1.54,0.55c-0.16-0.14-0.01-0.7,0.29-1.8c0.14-0.51,0.09-0.27,0.43-1.44
			c0.03-0.11,0.16-0.56,0.4-1.13c0.22-0.53,0.33-0.7,0.52-0.79C140.64,441.29,140.94,441.36,141.1,441.41z"/>
		<path class="st2" d="M139.94,437.98c-0.12-0.21-0.61-1.05-1.86-1.92c-1.44-1-2.85-1.25-4.95-1.62c-0.69-0.12-1.44-0.23-2.07-0.31
			c0.43,0,0.91-0.03,1.43-0.15c0.66-0.15,1.02-0.36,1.25-0.52c0.26-0.19,0.92-0.65,1.07-1.41c0.13-0.63-0.16-1.14-0.67-2.05
			c-0.43-0.75-0.65-1.14-1.13-1.44c-0.54-0.33-1.08-0.31-2.17-0.27c-0.97,0.03-1.45,0.05-2.02,0.37c-0.69,0.4-1.11,1.04-1.13,1.07
			c-0.14,0.22-0.16,0.31-0.37,0.64c-0.37,0.58-0.54,0.65-0.7,0.92c-0.52,0.86,0.39,1.66-0.09,2.44c-0.24,0.38-0.49,0.25-1.07,0.86
			c-0.34,0.36-0.39,0.54-0.7,1.01c-0.56,0.82-1.12,1.65-1.99,1.89c-0.65,0.18-1.19-0.03-1.34,0.27c-0.08,0.16-0.01,0.37,0.09,0.49
			c0.26,0.3,0.93,0.06,1.47-0.12c0.76-0.26,0.83-0.44,1.68-0.76c0.67-0.25,0.66-0.15,1.1-0.37c0.16-0.08,0.33-0.18,1.28-0.82
			c0.6-0.41,0.67-0.47,0.82-0.46c0.46,0.03,0.79,0.61,1.04,1.04c0.29,0.5,0.41,0.93,0.46,1.1c0.34,1.13,0.9,1.95,1.37,2.63
			c0.65,0.94,1.36,1.6,1.83,1.99c1.07,0.87,2.45,1.99,4.16,1.77c1.07-0.14,1.8-0.74,2.17-1.04c0.44-0.36,1.44-1.18,1.65-2.57
			C140.74,439.41,140.2,438.45,139.94,437.98z M128.49,431.69c-0.21-0.42-0.37-0.72-0.27-1.07c0.12-0.44,0.57-0.64,1.41-1.01
			c0.8-0.35,1.26-0.56,1.86-0.46c0.4,0.06,0.67,0.23,1.19,0.55c0.45,0.28,0.8,0.49,1.07,0.92c0.15,0.24,0.43,0.68,0.31,1.13
			c-0.03,0.11-0.12,0.34-1.22,0.95c-0.77,0.43-1.17,0.64-1.59,0.67c-0.68,0.05-1.19-0.2-1.41-0.31
			C128.98,432.64,128.61,431.94,128.49,431.69z M139.3,440.43c-0.04,0.16-0.19,0.69-1.1,1.74c-0.55,0.64-0.82,0.96-1.13,1.04
			c-0.17,0.05-0.55,0.11-1.68-0.49c-0.75-0.4-1.37-0.72-1.99-1.34c-0.89-0.91-0.92-1.57-1.89-3.61c-0.28-0.58-0.71-1.43-1.31-2.44
			c1.68,0.17,3.04,0.42,4.03,0.64c0.77,0.17,1.5,0.36,2.35,0.76c0.9,0.43,1.38,0.83,1.56,0.98c0.52,0.45,1.16,1.01,1.25,1.86
			C139.43,439.93,139.36,440.2,139.3,440.43z"/>
		<path class="st2" d="M138.08,439.76c0.46,1.48-4.3,4.57-4.8,4.06c-0.22-0.22,0.24-1.27,3.24-4.92
			C137.13,439.01,137.92,439.23,138.08,439.76z"/>
		<path class="st2" d="M135.6,437.89c0.46,1.48-4.3,4.57-4.8,4.06c-0.22-0.22,0.24-1.27,3.24-4.92
			C134.65,437.14,135.44,437.37,135.6,437.89z"/>
		<path class="st2" d="M132.7,436.27c0.65,1.54-4.85,5.59-5.29,5.16c-0.2-0.2,0.56-1.49,4.19-5.77
			C132.01,435.73,132.54,435.88,132.7,436.27z"/>
		<path class="st2" d="M130.62,434.78c0.65,1.54-4.85,5.59-5.29,5.16c-0.2-0.2,0.56-1.49,4.19-5.77
			C129.93,434.23,130.46,434.39,130.62,434.78z"/>
		<path class="st7" d="M104.3,454.71c3.39,0.95,6.79,1.9,10.18,2.85c0.66,0.2,1.31-0.15,1.47-0.68c0.12-0.4-0.05-0.87-0.43-1.16
			c-0.22-0.06-0.45-0.13-0.67-0.19c-3.3-0.86-6.6-1.71-9.9-2.57c-0.45-0.11-0.9,0.08-1.1,0.45
			C103.62,453.84,103.8,454.45,104.3,454.71z"/>
	</g>
	<g>
		<path class="st9" d="M186.38,234.06L186.38,234.06c-4.01,0.12-7.4-3.06-7.52-7.07l-0.25-8.19c-0.12-4.01,3.06-7.4,7.07-7.52h0
			c4.01-0.12,7.4,3.06,7.52,7.07l0.25,8.19C193.58,230.56,190.4,233.94,186.38,234.06z"/>
		<path class="st10" d="M134.54,254.84c-5.9,0.97-14.08,1.34-20.16-3c-11.75-8.38-7.97-28.87-11.02-29.17
			c-1.5-0.15-4.13,4.58-9.14,26.18c3.18,41.05,2.39,72.01,2.9,93.11c0.95,39.74,1.59,78.98,1.05,90.19
			c-0.02,0.44-0.38,3.33,0.22,3.97c1.03,1.09,5.12-0.5,7.96,0.2c1.77,0.44,1.7,0.92,3.89,1.7c2.31,0.81,4.27,0.94,5.26,0.99
			c3.41,0.19,3.53-0.75,11.93-2.72c1.83-0.43,3.06-0.69,4.15-1.74c1.49-1.44,1.59-3.44,1.62-4.28c2.33-55.99,1.35-67.01,1.35-67.01
			c-0.15-1.65-0.25-14.94-0.46-41.52C133.91,297.41,134.12,275.01,134.54,254.84z"/>
		<path class="st10" d="M170.19,233.08c-10.82-0.35-21.43-0.64-32.26-1c2.12,24.93,1.94,45.38,1.35,59.66
			c-1.72,41.95,3.95,83.97,2.16,125.91c-0.02,0.45-0.05,1.36,0.52,2.01c0.96,1.12,2.53,0.23,5.16,0.95
			c1.64,0.45,1.58,0.95,3.61,1.75c2.15,0.84,3.97,0.96,4.88,1.02c3.17,0.19,3.27-0.78,11.07-2.81c1.69-0.44,2.84-0.71,3.85-1.79
			c1.1-1.18,1.43-2.84,1.5-4.41c0.2-4.15-0.07-33.82-0.72-74.5C171.01,304.29,170.49,268.65,170.19,233.08z"/>
		<path class="st10" d="M103.29,222.68c4.07-2.45,12.81,12.82,24.34,11.06c2.8-0.43,5.88-2.67,11.91-7.15
			c8.3-6.16,14.02-11.81,16-13.79c13.15-13.17,16.96-20.98,19.4-19.91c0.72,0.32,0.61,5.66,0.34,16.34
			c-0.1,3.84-0.21,7.18-1.87,11.06c-1.14,2.66-1.61,2.32-2.38,4.6c-1.82,5.38,0.35,8.66-2.04,11.06c-0.38,0.38-0.38,0.25-3.4,1.7
			c0,0-1.67,0.8-6.3,3.23c-5.18,2.72-11.56,8.3-12.6,9.19c-5.14,4.43-17.07,14.71-26.89,12.26c-10.42-2.6-14.35-18.49-16.34-26.55
			C102.51,231.91,100.62,224.29,103.29,222.68z"/>
		<path class="st0" d="M172.53,217.66"/>
		<path class="st11" d="M193.77,218.34c-5.19-0.06-10.39-0.11-15.58-0.17c-2.53-30.19-3.19-37.62-3.22-37.62
			c-0.02,0,0.13,1.64,0.3,4.4c0.07,1.17,0.14,2.27,0.19,3.3c0.05,1.03,0.18,3.45,0.29,7.21c0.15,4.84,0.2,9.34,0.23,12.25
			c-7.1,5.13-15.55,10.58-25.36,15.83c-8.93,4.77-17.41,8.53-25.07,11.49c-0.59,0.37-9.76,5.99-17.37,2.3
			c-2.38-1.15-4.01-2.93-4.57-3.57c-3.19-3.69-3.54-7.9-3.67-9.79c-0.14-1.95-0.02-3.39,0.18-4.26c0.35-1.53-0.39-11.98,0-32.81
			c0.17-9.31,0.38-12.08,0.67-14.81c1.03-9.49,2.45-11.95,4.97-25.53c1.57-8.49,2.45-13.23,2.78-19.62
			c0.46-9.01-0.42-16.41-1.25-21.28c3.69-3.76,9.54-8.72,17.91-12.43c17.87-7.93,34.8-4.64,40.65-3.23
			c4.4,7.37,6.66,13.68,7.91,18.09c1.37,4.81,1.48,7.17,3.55,15.27c1.69,6.61,3.19,11.17,3.93,13.52
			c4.25,13.54,6.74,28.41,8.07,36.35C191.29,185.17,193.17,200.41,193.77,218.34z"/>
		<path class="st9" d="M99.61,270.99L99.61,270.99c-4.37,0.9-8.69-1.94-9.59-6.32l-2.12-10.33c-0.9-4.37,1.94-8.69,6.32-9.59l0,0
			c4.37-0.9,8.69,1.94,9.59,6.32l2.12,10.33C106.82,265.78,103.98,270.09,99.61,270.99z"/>
		<path class="st0" d="M105.47,104.17c3.18-1.46,4.69-1.15,5.42-0.85c3.37,1.38,2.64,7.78,1.48,16.17
			c-2.37,17.06-3.47,25.61-5.82,34.6c-3.29,12.57-4.05,13.68-5.01,19.96c-0.65,4.25-0.9,7.69-1.12,20.51
			c-0.32,18.47-0.48,27.81,0.15,33.32c0.68,5.92,2.09,14.29,5.31,24.26c-6.37,1.19-12.74,2.38-19.11,3.57
			c-1.02-3.91-2.04-7.83-3.07-11.74c-0.86-5.78-1.93-14.15-2.61-24.26c-1.59-23.82,0.15-40.73,2.45-62.17c0,0,1.38-12.82,7.71-33.74
			C92.79,118.74,96.08,108.48,105.47,104.17z"/>
		<path class="st12" d="M105.47,102.01c3.45-1.46,5.09-1.15,5.89-0.85c3.66,1.38,2.87,7.78,1.61,16.17
			c-2.57,17.06-3.77,25.61-6.33,34.6c-3.58,12.57-4.4,13.68-5.44,19.96c-0.7,4.25-0.98,7.69-1.22,20.51
			c-0.35,18.47-0.52,27.81,0.17,33.32c0.74,5.92,2.27,14.29,5.77,24.26c-6.92,1.19-13.84,2.38-20.76,3.57
			c-1.11-3.91-2.22-7.83-3.33-11.74c-0.94-5.78-2.1-14.15-2.83-24.26c-1.72-23.82,0.16-40.73,2.66-62.17c0,0,1.5-12.82,8.38-33.74
			C91.7,116.58,95.28,106.32,105.47,102.01z"/>
		
			<ellipse transform="matrix(0.5888 -0.8083 0.8083 0.5888 -25.8254 153.0189)" class="st9" cx="137.48" cy="101.89" rx="8.74" ry="12.54"/>
		<path class="st12" d="M104.75,107.09c-11.29,13.7-8.98,30.65-7.48,63.1c0.65,14.17,1.29,34.49,1.01,59.46
			c5.19,2.63,10.38,5.26,15.57,7.89c8.02-3.51,16.04-7.01,24.07-10.52c-2.09-37.28-4.18-74.56-6.27-111.84c-2-2.17-5-6-6.88-11.53
			c-1.23-3.61-1.6-6.84-1.69-9.24c-1.73,0.63-4.1,1.61-6.73,3.11C116.35,97.53,109.71,101.07,104.75,107.09z"/>
		<path class="st13" d="M154.5,219.74c7.28-4.79,14.56-9.57,21.84-14.36c-0.47-7.51-0.73-13.51-0.88-17.13c0,0-2.88-73.26-6-88.31
			c-0.12-0.6-0.44-1.75-1.08-4.04c-1.19-4.31-1.6-5.25-2.55-5.9c-0.6-0.41-1.57-0.56-3.52-0.88c-1.72-0.28-3.03-0.34-3.64-0.37
			c-4.2-0.21-5.08-0.45-7.69-0.54c-2.5-0.09-6.74-0.03-12.74,1.01c1.04,0.14,7.55,1.12,10.99,6.74c2.07,3.38,2.05,6.84,2.02,8.29
			c-0.07,3.93-1.5,6.84-2.29,8.22C150.81,148.23,152.66,183.99,154.5,219.74z"/>
		<polygon class="st14" points="165.64,141.5 159.76,144.1 159.76,136.87 165.64,134.27 		"/>
		<path class="st15" d="M160.47,142.26"/>
		<path class="st15" d="M163.16,141.62c-0.16,0.1-0.39,0.24-0.67,0.37c-0.95,0.43-2.08,0.52-2.33-0.36
			c-0.18-0.63,0.19-1.56,0.28-1.79c0.09-0.22,0.27-0.66,0.65-1.22c0.13-0.18,0.35-0.49,0.66-0.83c0.77-0.84,1.5-1.27,1.82-1.46
			c0.4-0.23,0.73-0.42,1.04-0.42c0.12,0,0.43-0.01,0.49,0.28c0.02,0.09,0.05,0.37-0.19,0.75c-0.05,0.07-0.2,0.31-0.43,0.47
			c-0.24,0.16-0.45,0.17-0.54,0.06c-0.11-0.14,0.01-0.42,0.04-0.51c0.14-0.34,0.42-0.62,0.49-0.69c-0.09,0.04-0.42,0.19-0.72,0.54
			c-0.2,0.24-0.3,0.45-0.38,0.65c-0.08,0.19-0.17,0.41-0.15,0.6c0.03,0.23,0.23,0.27,0.34,0.29c0.08,0.01,0.18,0.03,0.35-0.02
			c0.27-0.09,0.51-0.29,0.61-0.38c0.02-0.02,0.03-0.03,0.06-0.06c0.16-0.15,0.31-0.28,0.42-0.43c0.07-0.09,0.15-0.22,0.23-0.4
			c0,0.5,0,0.99,0,1.49c0,0.53,0,1.06,0,1.59C164.56,140.64,163.86,141.13,163.16,141.62z"/>
		<path class="st15" d="M158.78,141.2"/>
		<path class="st16" d="M120.93,95.31c-0.9,2.23-2.39,5.66-2.02,9.49c0.29,3.02,1.25,5.27,1.99,7.01c1.43,3.35,3.12,5.57,3.64,6.24
			c1.63,2.08,3.31,3.58,4.62,4.58c0.83-2.48,1.66-4.97,2.49-7.45c-1.21-1.27-2.5-2.91-3.57-4.99c-3.84-7.45,0.42-16,1.15-18.57
			C127.08,92.58,123.06,94.34,120.93,95.31z"/>
		<path class="st16" d="M136.24,89.58c1.42,0.2,3.63,0.7,6.03,2.03c1.92,1.07,3.24,2.27,3.98,3.03c0.81,0.83,2.98,3.1,4.01,6.51
			c1.62,5.36-0.65,10.1-1.28,11.33c2.02,1.69,4.04,3.37,6.07,5.06c1.31-3.65,1.98-6.76,2.36-8.97c0.52-3.05,0.75-5.05,0.2-7.69
			c-0.67-3.23-2.32-5.44-3.17-6.57c-0.76-1.01-1.99-2.61-4.15-4.04c-1.69-1.13-3.29-1.72-4.4-2.03c-1.71,0.1-3.54,0.29-5.49,0.58
			C138.93,89.03,137.54,89.3,136.24,89.58z"/>
		<path class="st9" d="M136.92,105.75L136.92,105.75c-4.23,0-7.69-3.46-7.69-7.69v-11.4c0-4.23,3.46-7.69,7.69-7.69h0
			c4.23,0,7.69,3.46,7.69,7.69v11.4C144.62,102.29,141.15,105.75,136.92,105.75z"/>
		<path class="st9" d="M156.12,62.39c1.93,9.73-0.2,24.33-9.73,28.79c-11.11,5.2-27.97-5.39-32.7-19.44
			c-4.73-14.08,2.41-32.61,14.25-35.27C140.05,33.74,153.34,48.41,156.12,62.39z"/>
		<path class="st17" d="M118.2,67.38h-1.49c-2.97,0-5.4-2.43-5.4-5.4V48.92c0-3.79,3.1-6.9,6.9-6.9h0c2.97,0,5.4,2.43,5.4,5.4v14.55
			C123.61,64.95,121.17,67.38,118.2,67.38z"/>
		<path class="st17" d="M117.06,48.41l-0.8-3.68c-0.87-3.99,1.69-7.97,5.68-8.84l30.25-6.59l2.38,10.94
			c0.87,3.99-1.69,7.97-5.68,8.84L125.9,54.1C121.91,54.97,117.93,52.41,117.06,48.41z"/>
		<path class="st9" d="M113.94,74.55l-0.5,0.09c-2.08,0.37-4.09-1.02-4.46-3.1l-0.74-4.11c-0.37-2.08,1.02-4.09,3.1-4.46l0.5-0.09
			c2.08-0.37,4.09,1.02,4.46,3.1l0.74,4.11C117.41,72.17,116.02,74.18,113.94,74.55z"/>
		<path class="st13" d="M194.95,216.91c-6.03-0.06-12.05-0.11-18.08-0.17c-1.3-12.45-2.55-24.99-3.74-37.62
			c-2.84-30.16-5.26-59.87-7.29-89.12c3.24,5.47,5.22,10.25,6.46,13.75c1.59,4.5,2.75,9.17,3.84,13.55c0.9,3.62,1.03,4.55,1.92,7.89
			c1.48,5.59,2.9,9.64,3.24,10.72c1.7,5.41,5.5,19.63,8.46,35.89C191.92,183.72,194.04,198.96,194.95,216.91z"/>
	</g>
</g>
</svg>
